0
SECTION
2
HEADER
9
$ACADVER
1
AC1009
9
$INSUNITS
70
6
0
ENDSEC
0
SECTION
2
TABLES
0
TABLE
2
LAYER
70
4
0
LAYER
2
LOTE
70
0
62
3
6
CONTINUOUS
0
LAYER
2
CONSTRUCCIONES
70
0
62
8
6
CONTINUOUS
0
LAYER
2
LOTE_TEXTO
70
0
62
7
6
CONTINUOUS
0
LAYER
2
LOTE_COTAS
70
0
62
2
6
CONTINUOUS
0
ENDTAB
0
ENDSEC
0
SECTION
2
ENTITIES
0
POLYLINE
8
LOTE
66
1
70
1
10
0.0
20
0.0
30
0.0
0
VERTEX
8
LOTE
10
4804796.5623
20
2768750.2429
30
0.0
0
VERTEX
8
LOTE
10
4804783.7429
20
2768746.4049
30
0.0
0
VERTEX
8
LOTE
10
4804776.2861
20
2768773.2855
30
0.0
0
VERTEX
8
LOTE
10
4804774.9908
20
2768777.9548
30
0.0
0
VERTEX
8
LOTE
10
4804773.6955
20
2768782.6243
30
0.0
0
VERTEX
8
LOTE
10
4804777.5276
20
2768783.7663
30
0.0
0
VERTEX
8
LOTE
10
4804786.6289
20
2768786.4787
30
0.0
0
VERTEX
8
LOTE
10
4804804.2562
20
2768791.7321
30
0.0
0
VERTEX
8
LOTE
10
4804850.3369
20
2768805.4653
30
0.0
0
VERTEX
8
LOTE
10
4804854.7244
20
2768789.6456
30
0.0
0
VERTEX
8
LOTE
10
4804855.3461
20
2768787.4035
30
0.0
0
VERTEX
8
LOTE
10
4804856.7590
20
2768782.3092
30
0.0
0
VERTEX
8
LOTE
10
4804860.3555
20
2768769.3417
30
0.0
0
VERTEX
8
LOTE
10
4804859.1696
20
2768768.9866
30
0.0
0
VERTEX
8
LOTE
10
4804851.8849
20
2768766.8057
30
0.0
0
VERTEX
8
LOTE
10
4804809.3818
20
2768754.0809
30
0.0
0
SEQEND
8
LOTE
0
POLYLINE
8
CONSTRUCCIONES
66
1
70
1
10
0.0
20
0.0
30
0.0
0
VERTEX
8
CONSTRUCCIONES
10
4804777.5276
20
2768783.7663
30
0.0
0
VERTEX
8
CONSTRUCCIONES
10
4804786.6289
20
2768786.4787
30
0.0
0
VERTEX
8
CONSTRUCCIONES
10
4804788.4847
20
2768780.2516
30
0.0
0
VERTEX
8
CONSTRUCCIONES
10
4804786.4729
20
2768779.6520
30
0.0
0
VERTEX
8
CONSTRUCCIONES
10
4804791.9983
20
2768758.8818
30
0.0
0
VERTEX
8
CONSTRUCCIONES
10
4804794.2203
20
2768759.4729
30
0.0
0
VERTEX
8
CONSTRUCCIONES
10
4804795.2482
20
2768755.6087
30
0.0
0
VERTEX
8
CONSTRUCCIONES
10
4804796.8905
20
2768756.0456
30
0.0
0
VERTEX
8
CONSTRUCCIONES
10
4804797.4045
20
2768754.1135
30
0.0
0
VERTEX
8
CONSTRUCCIONES
10
4804786.4507
20
2768750.9702
30
0.0
0
SEQEND
8
CONSTRUCCIONES
0
POLYLINE
8
CONSTRUCCIONES
66
1
70
1
10
0.0
20
0.0
30
0.0
0
VERTEX
8
CONSTRUCCIONES
10
4804834.0688
20
2768793.9435
30
0.0
0
VERTEX
8
CONSTRUCCIONES
10
4804837.7419
20
2768780.6463
30
0.0
0
VERTEX
8
CONSTRUCCIONES
10
4804843.1380
20
2768782.1369
30
0.0
0
VERTEX
8
CONSTRUCCIONES
10
4804846.9086
20
2768768.4517
30
0.0
0
VERTEX
8
CONSTRUCCIONES
10
4804805.7194
20
2768756.1992
30
0.0
0
VERTEX
8
CONSTRUCCIONES
10
4804798.2650
20
2768783.1787
30
0.0
0
SEQEND
8
CONSTRUCCIONES
0
TEXT
8
LOTE_COTAS
10
4804790.1526
20
2768748.3239
30
0.0
40
1.050
1
13.38
50
0.000
72
1
11
4804790.1526
21
2768748.3239
31
0.0
0
TEXT
8
LOTE_COTAS
10
4804780.0145
20
2768759.8452
30
0.0
40
1.050
1
27.90
50
0.000
72
1
11
4804780.0145
21
2768759.8452
31
0.0
0
TEXT
8
LOTE_COTAS
10
4804775.6385
20
2768775.6201
30
0.0
40
1.050
1
4.85
50
0.000
72
1
11
4804775.6385
21
2768775.6201
31
0.0
0
TEXT
8
LOTE_COTAS
10
4804774.3432
20
2768780.2895
30
0.0
40
1.050
1
4.85
50
0.000
72
1
11
4804774.3432
21
2768780.2895
31
0.0
0
TEXT
8
LOTE_COTAS
10
4804775.6115
20
2768783.1953
30
0.0
40
1.050
1
4.00
50
0.000
72
1
11
4804775.6115
21
2768783.1953
31
0.0
0
TEXT
8
LOTE_COTAS
10
4804782.0783
20
2768785.1225
30
0.0
40
1.050
1
9.50
50
0.000
72
1
11
4804782.0783
21
2768785.1225
31
0.0
0
TEXT
8
LOTE_COTAS
10
4804795.4425
20
2768789.1054
30
0.0
40
1.050
1
18.39
50
0.000
72
1
11
4804795.4425
21
2768789.1054
31
0.0
0
TEXT
8
LOTE_COTAS
10
4804827.2966
20
2768798.5987
30
0.0
40
1.050
1
48.08
50
0.000
72
1
11
4804827.2966
21
2768798.5987
31
0.0
0
TEXT
8
LOTE_COTAS
10
4804852.5307
20
2768797.5554
30
0.0
40
1.050
1
16.42
50
0.000
72
1
11
4804852.5307
21
2768797.5554
31
0.0
0
TEXT
8
LOTE_COTAS
10
4804855.0352
20
2768788.5246
30
0.0
40
1.050
1
2.33
50
0.000
72
1
11
4804855.0352
21
2768788.5246
31
0.0
0
TEXT
8
LOTE_COTAS
10
4804856.0525
20
2768784.8564
30
0.0
40
1.050
1
5.29
50
0.000
72
1
11
4804856.0525
21
2768784.8564
31
0.0
0
TEXT
8
LOTE_COTAS
10
4804858.5572
20
2768775.8255
30
0.0
40
1.050
1
13.46
50
0.000
72
1
11
4804858.5572
21
2768775.8255
31
0.0
0
TEXT
8
LOTE_COTAS
10
4804859.7626
20
2768769.1642
30
0.0
40
1.050
1
1.24
50
0.000
72
1
11
4804859.7626
21
2768769.1642
31
0.0
0
TEXT
8
LOTE_COTAS
10
4804855.5272
20
2768767.8962
30
0.0
40
1.050
1
7.60
50
0.000
72
1
11
4804855.5272
21
2768767.8962
31
0.0
0
TEXT
8
LOTE_COTAS
10
4804830.6333
20
2768760.4433
30
0.0
40
1.050
1
44.37
50
0.000
72
1
11
4804830.6333
21
2768760.4433
31
0.0
0
TEXT
8
LOTE_COTAS
10
4804802.9720
20
2768752.1619
30
0.0
40
1.050
1
13.38
50
0.000
72
1
11
4804802.9720
21
2768752.1619
31
0.0
0
TEXT
8
LOTE_TEXTO
10
4804816.2278
20
2768775.5000
30
0.0
40
1.500
1
LOTE 080010105000000040001000000000 A=3001.36 m2
50
0.000
72
1
11
4804816.2278
21
2768775.5000
31
0.0
0
ENDSEC
0
EOF
